<svg width="48" height="48" viewBox="0 0 48 48" fill="none" xmlns="http://www.w3.org/2000/svg">
<path fill-rule="evenodd" clip-rule="evenodd" d="M21.63 3.70183C21.7948 4.51369 21.2703 5.30546 20.4585 5.4703C11.9238 7.20316 5.5 14.7517 5.5 23.7983C5.5 34.1279 13.8724 42.5003 24.202 42.5003C33.2486 42.5003 40.7971 36.0765 42.53 27.5418C42.6948 26.73 43.4866 26.2055 44.2985 26.3703C45.1103 26.5351 45.6348 27.3269 45.47 28.1388C43.4589 38.0441 34.7034 45.5003 24.202 45.5003C12.2156 45.5003 2.5 35.7847 2.5 23.7983C2.5 13.2969 9.95623 4.54143 19.8615 2.53029C20.6734 2.36545 21.4652 2.88997 21.63 3.70183Z" fill="#09294F"/>
<path fill-rule="evenodd" clip-rule="evenodd" d="M29.8181 11.818C30.662 10.9741 31.8066 10.5 33.0001 10.5C34.1936 10.5 35.3382 10.9741 36.1821 11.818C37.026 12.6619 37.5001 13.8065 37.5001 15C37.5001 16.1935 37.026 17.3381 36.1821 18.182C35.3382 19.0259 34.1936 19.5 33.0001 19.5C31.8066 19.5 30.662 19.0259 29.8181 18.182C28.9742 17.3381 28.5001 16.1935 28.5001 15C28.5001 13.8065 28.9742 12.6619 29.8181 11.818ZM33.0001 13.5C32.6023 13.5 32.2207 13.658 31.9394 13.9393C31.6581 14.2206 31.5001 14.6022 31.5001 15C31.5001 15.3978 31.6581 15.7794 31.9394 16.0607C32.2207 16.342 32.6023 16.5 33.0001 16.5C33.3979 16.5 33.7794 16.342 34.0608 16.0607C34.3421 15.7794 34.5001 15.3978 34.5001 15C34.5001 14.6022 34.3421 14.2206 34.0608 13.9393C33.7794 13.658 33.3979 13.5 33.0001 13.5ZM11.4091 25.8355C11.5 25.0121 12.2411 24.4182 13.0646 24.509C14.3506 24.6509 15.7507 25.015 17.2931 25.6631C18.0569 25.984 18.4159 26.8633 18.095 27.627C17.7741 28.3908 16.8948 28.7498 16.131 28.4289C14.8175 27.877 13.6976 27.5971 12.7356 27.491C11.9122 27.4001 11.3183 26.6589 11.4091 25.8355ZM9.52149 26.1157C9.82544 26.8863 9.4471 27.7574 8.67644 28.0614C8.1016 28.2881 7.58991 28.5407 7.05449 28.8051C6.92398 28.8695 6.79207 28.9347 6.65748 29.0003C5.91285 29.3633 5.01489 29.054 4.65182 28.3094C4.28876 27.5648 4.59808 26.6668 5.34271 26.3037C5.45106 26.2509 5.56504 26.1945 5.68413 26.1357C6.22586 25.8678 6.87315 25.5477 7.57575 25.2706C8.3464 24.9667 9.21754 25.345 9.52149 26.1157ZM20.4825 29.034C20.9586 28.356 21.8941 28.1923 22.5721 28.6684C22.9881 28.9605 23.4151 29.2785 23.8262 29.5847L23.8782 29.6234C24.3123 29.9467 24.7303 30.2571 25.1384 30.5418C25.8178 31.0158 25.9843 31.9509 25.5103 32.6303C25.0363 33.3097 24.1012 33.4762 23.4218 33.0022C22.9699 32.6869 22.5159 32.3493 22.0865 32.0296L22.0483 32.0012C21.6261 31.6867 21.2291 31.3911 20.8481 31.1236C20.1701 30.6475 20.0064 29.712 20.4825 29.034ZM28.001 34.0828C28.3319 33.3233 29.2159 32.9759 29.9753 33.3069C31.0972 33.7957 32.1542 34.1508 33.1479 34.3805C33.9551 34.5671 34.4581 35.3727 34.2716 36.1798C34.085 36.987 33.2794 37.49 32.4723 37.3035C31.274 37.0265 30.0417 36.6083 28.7769 36.0571C28.0174 35.7262 27.67 34.8422 28.001 34.0828ZM41.3111 34.477C41.7136 35.2011 41.4531 36.1144 40.7291 36.517C39.9336 36.9593 39.0764 37.2797 38.1858 37.4677C37.3753 37.6387 36.5795 37.1203 36.4084 36.3098C36.2374 35.4992 36.7558 34.7034 37.5663 34.5323C38.1633 34.4063 38.7379 34.1915 39.2711 33.895C39.9952 33.4924 40.9085 33.753 41.3111 34.477Z" fill="#09294F"/>
<path fill-rule="evenodd" clip-rule="evenodd" d="M32.9999 5.5C29.2211 5.5 25.673 7.70489 24.2131 11.0552C22.8843 14.1049 23.5335 16.6354 25.1651 19.0568C26.5939 21.1771 28.6764 23.0711 30.7931 24.9963C31.208 25.3736 31.6241 25.7521 32.037 26.1337C32.2993 26.3707 32.6406 26.5014 32.9943 26.5L33.0056 26.5V26.5C33.3598 26.5014 33.7017 26.3703 33.9642 26.1326C34.3538 25.7742 34.7465 25.4182 35.1381 25.0632C37.2803 23.1211 39.3936 21.2051 40.8359 19.0602C42.4661 16.636 43.1128 14.1016 41.7849 11.0554L41.7847 11.0549C40.3266 7.70665 36.7786 5.5 32.9999 5.5ZM21.4628 9.85679C23.4349 5.33111 28.1188 2.5 32.9999 2.5C37.8813 2.5 42.5653 5.33335 44.5352 9.85712C46.377 14.0827 45.3637 17.7031 43.3254 20.7343C41.6592 23.2122 39.2218 25.4167 37.0902 27.3447C36.7124 27.6865 36.3441 28.0196 35.9914 28.344L35.9853 28.3496L35.9853 28.3496C35.1687 29.0924 34.1037 29.5028 32.9999 29.5C32.998 29.5 32.9962 29.5 32.9943 29.5L32.9999 28L33.0056 29.5C33.0037 29.5 33.0018 29.5 32.9999 29.5C31.8961 29.5028 30.8312 29.0924 30.0146 28.3496L30.0056 28.3414L30.0056 28.3414C29.6357 27.9993 29.2481 27.6477 28.8501 27.2865C26.7376 25.3696 24.3286 23.1838 22.6773 20.7332C20.6364 17.7046 19.6196 14.0872 21.4628 9.85683L21.4628 9.85679Z" fill="#09294F"/>
</svg>
