<svg width="44" height="36" viewBox="0 0 44 36" fill="none" xmlns="http://www.w3.org/2000/svg">
<mask id="mask0_16_4500" style="mask-type:luminance" maskUnits="userSpaceOnUse" x="0" y="0" width="44" height="36">
<path fill-rule="evenodd" clip-rule="evenodd" d="M1.46447 1.46447C2.40215 0.526783 3.67392 0 5 0H39C40.3261 0 41.5979 0.526784 42.5355 1.46447C43.4732 2.40215 44 3.67392 44 5V14C44 15.1046 43.1046 16 42 16H2C0.89543 16 0 15.1046 0 14V5C0 3.67392 0.526784 2.40215 1.46447 1.46447ZM5 4C4.73478 4 4.48043 4.10536 4.29289 4.29289C4.10536 4.48043 4 4.73478 4 5V12H40V5C40 4.73479 39.8946 4.48043 39.7071 4.29289C39.5196 4.10536 39.2652 4 39 4H5Z" fill="white"/>
<path fill-rule="evenodd" clip-rule="evenodd" d="M27.5938 18.4942C28.3789 17.8079 29.5596 17.84 30.3063 18.568L34.7863 22.936C35.5771 23.7071 35.5932 24.9733 34.8221 25.7642C34.051 26.5551 32.7847 26.5711 31.9939 25.8L28.8361 22.7211L22.1844 28.5358C21.4045 29.2175 20.2331 29.191 19.4849 28.4746L14.3257 23.5349L3.53342 34.437C2.75634 35.222 1.49003 35.2284 0.70503 34.4514C-0.0799657 33.6743 -0.086381 32.408 0.690701 31.623L12.8667 19.323C13.6346 18.5472 14.8828 18.5305 15.6712 19.2854L20.9295 24.3199L27.5938 18.4942Z" fill="white"/>
<path fill-rule="evenodd" clip-rule="evenodd" d="M42 10C43.1046 10 44 10.8954 44 12V31C44 32.3261 43.4732 33.5979 42.5355 34.5355C41.5979 35.4732 40.3261 36 39 36H10C8.89543 36 8 35.1046 8 34C8 32.8954 8.89543 32 10 32H39C39.2652 32 39.5196 31.8946 39.7071 31.7071C39.8946 31.5196 40 31.2652 40 31V12C40 10.8954 40.8954 10 42 10Z" fill="white"/>
<path fill-rule="evenodd" clip-rule="evenodd" d="M2 12C3.10457 12 4 12.8954 4 14V23C4 24.1046 3.10457 25 2 25C0.89543 25 0 24.1046 0 23V14C0 12.8954 0.89543 12 2 12Z" fill="white"/>
</mask>
<g mask="url(#mask0_16_4500)">
<path d="M-2 -6H46V42H-2V-6Z" fill="#09294F"/>
</g>
</svg>
