<svg width="48" height="48" viewBox="0 0 48 48" fill="none" xmlns="http://www.w3.org/2000/svg">
<path d="M13.8201 11.0001L18.4201 15.5801L15.5801 18.4201L11.0001 13.8201L6.42008 18.4201L3.58008 15.5801L8.18008 11.0001L3.58008 6.42008L6.42008 3.58008L11.0001 8.18008L15.5801 3.58008L18.4201 6.42008M44.4201 32.4201L41.5801 29.5801L37.0001 34.1801L32.4201 29.5801L29.5801 32.4201L34.1801 37.0001L29.5801 41.5801L32.4201 44.4201L37.0001 39.8201L41.5801 44.4201L44.4201 41.5801L39.8201 37.0001M40.8001 13.6601L34.3601 22.0001L31.2001 19.4601L33.5401 16.4601C30.5554 17.0664 27.7712 18.4136 25.4436 20.3777C23.1159 22.3419 21.3197 24.8599 20.2201 27.7001C21.9609 28.9554 23.1957 30.7915 23.702 32.8771C24.2082 34.9628 23.9524 37.1607 22.9808 39.0744C22.0092 40.988 20.3857 42.4915 18.4032 43.3136C16.4207 44.1357 14.2096 44.2222 12.1689 43.5576C10.1282 42.893 8.39219 41.521 7.27398 39.6891C6.15578 37.8572 5.72901 35.6861 6.07067 33.5672C6.41233 31.4484 7.49993 29.5214 9.13727 28.1339C10.7746 26.7463 12.8539 25.9895 15.0001 26.0001C15.5241 26.0022 16.0466 26.0558 16.5601 26.1601C17.9457 22.7213 20.1582 19.6775 23.0014 17.2982C25.8447 14.919 29.2309 13.2778 32.8601 12.5201L30.0001 10.3601L32.5401 7.20008M20.0001 35.0001C20.0001 34.0112 19.7068 33.0445 19.1574 32.2222C18.608 31.4 17.8271 30.7591 16.9135 30.3807C15.9999 30.0022 14.9945 29.9032 14.0246 30.0962C13.0547 30.2891 12.1638 30.7653 11.4645 31.4645C10.7653 32.1638 10.2891 33.0547 10.0962 34.0246C9.90323 34.9945 10.0022 35.9999 10.3807 36.9135C10.7591 37.8271 11.4 38.608 12.2222 39.1574C13.0445 39.7068 14.0112 40.0001 15.0001 40.0001C16.3262 40.0001 17.5979 39.4733 18.5356 38.5356C19.4733 37.5979 20.0001 36.3262 20.0001 35.0001Z" fill="#09294F"/>
</svg>
