<svg width="48" height="48" viewBox="0 0 48 48" fill="none" xmlns="http://www.w3.org/2000/svg">
<path fill-rule="evenodd" clip-rule="evenodd" d="M8 13.5C8.82843 13.5 9.5 14.1716 9.5 15V33C9.5 33.013 9.50129 33.0167 9.50273 33.0208L9.50281 33.021C9.5051 33.0276 9.51609 33.0566 9.55562 33.1105C9.64458 33.2318 9.83664 33.4239 10.2318 33.6943C11.0433 34.2496 12.3077 34.8738 14.2 35.801C14.2 35.801 14.2 35.801 14.2 35.801L22.5 39.8674V24C22.5 23.1716 23.1716 22.5 24 22.5C24.8284 22.5 25.5 23.1716 25.5 24V39.8674L33.8 35.801C35.6923 34.8738 36.9567 34.2496 37.7682 33.6943C38.1634 33.4239 38.3554 33.2318 38.4444 33.1105C38.4839 33.0566 38.4949 33.0276 38.4972 33.021C38.4987 33.0168 38.5 33.0132 38.5 33V15C38.5 14.1716 39.1716 13.5 40 13.5C40.8284 13.5 41.5 14.1716 41.5 15V33C41.5 34.497 40.4814 35.4729 39.4623 36.1702C38.4469 36.865 36.9785 37.5845 35.2219 38.4451L35.12 38.495L35.1199 38.495L26.7775 42.5823C26.7772 42.5824 26.777 42.5825 26.7768 42.5826C26.7137 42.6136 26.6507 42.6448 26.5878 42.6759C25.7464 43.0918 24.9207 43.5 24 43.5C23.0793 43.5 22.2536 43.0918 21.4122 42.6759C21.3494 42.6448 21.2866 42.6137 21.2236 42.5828C21.2232 42.5826 21.2229 42.5824 21.2225 42.5823L12.88 38.495L12.88 38.495L12.7782 38.4451C11.0216 37.5845 9.55314 36.865 8.53768 36.1702C7.51863 35.4729 6.5 34.497 6.5 33V15C6.5 14.1716 7.17157 13.5 8 13.5Z" fill="#09294F"/>
<path fill-rule="evenodd" clip-rule="evenodd" d="M24 7.5C23.8715 7.5 23.7163 7.53611 22.5444 8.11078L14.2 12.199C14.2 12.199 14.2 12.199 14.2 12.199C12.3077 13.1262 11.0433 13.7504 10.2318 14.3057C9.83664 14.5761 9.64458 14.7682 9.55562 14.8895C9.51609 14.9434 9.5051 14.9724 9.50281 14.979C9.50137 14.9831 9.5 14.987 9.5 15C9.5 15.013 9.50129 15.0167 9.50273 15.0208C9.50502 15.0273 9.51609 15.0566 9.55562 15.1105C9.64458 15.2318 9.83664 15.4239 10.2318 15.6943C11.0433 16.2496 12.3077 16.8738 14.2 17.801L22.544 21.889C23.7122 22.463 23.8698 22.5 24 22.5C24.1285 22.5 24.2837 22.4639 25.4556 21.8892L33.8 17.801C35.6923 16.8738 36.9567 16.2496 37.7682 15.6943C38.1634 15.4239 38.3554 15.2318 38.4444 15.1105C38.4839 15.0566 38.4949 15.0276 38.4972 15.021C38.4986 15.0169 38.5 15.013 38.5 15C38.5 14.987 38.4987 14.9833 38.4973 14.9792C38.495 14.9727 38.4839 14.9434 38.4444 14.8895C38.3554 14.7682 38.1634 14.5761 37.7682 14.3057C36.9567 13.7504 35.6923 13.1262 33.8 12.199C33.8 12.199 33.8001 12.199 33.8 12.199L25.456 8.11102C24.2878 7.53703 24.1302 7.5 24 7.5ZM21.4165 5.32223C22.2572 4.90731 23.0825 4.5 24 4.5C24.9207 4.5 25.7464 4.90817 26.5878 5.32413C26.6507 5.35525 26.7137 5.38641 26.7769 5.41745C26.7767 5.41736 26.7771 5.41754 26.7769 5.41745L35.1199 9.50498L35.2219 9.55493C36.9785 10.4156 38.4469 11.135 39.4623 11.8298C40.4814 12.5271 41.5 13.503 41.5 15C41.5 16.497 40.4814 17.4729 39.4623 18.1702C38.4469 18.865 36.9785 19.5844 35.2219 20.4451L35.12 20.495L26.7764 24.5828C26.7122 24.6143 26.6476 24.6462 26.5835 24.6778C25.7428 25.0927 24.9175 25.5 24 25.5C23.0793 25.5 22.2536 25.0918 21.4122 24.6759C21.3494 24.6448 21.2866 24.6137 21.2236 24.5828C21.2232 24.5826 21.2239 24.5829 21.2236 24.5828L12.8801 20.495L12.7781 20.4451C11.0215 19.5845 9.55313 18.865 8.53768 18.1702C7.51862 17.4729 6.5 16.497 6.5 15C6.5 13.503 7.51863 12.5271 8.53768 11.8298C9.55313 11.135 11.0215 10.4155 12.7781 9.55492C12.812 9.53833 12.8459 9.5217 12.88 9.50501L21.2236 5.41722C21.2234 5.4173 21.2237 5.41714 21.2236 5.41722C21.2878 5.38571 21.3524 5.35382 21.4165 5.32223Z" fill="#09294F"/>
</svg>
